<svg width="500" height="500" viewBox="0 0 500 500" xmlns="http://www.w3.org/2000/svg">
  <path d="M442.6,178.6c-7.8-22.3-22.4-38.2-43.7-47.7c-21.3-9.5-44.6-9.9-69.8-1.3c-4-8.2-8.2-15.9-12.4-23.2
    c-15.6-26.3-36.1-48.8-62.2-65.9c-19.5-12.8-40.5-21.9-63.4-25.8c-38.6-6.5-68.1,6.6-88.4,39.1c-9.6,15.4-15.5,32.3-19.5,49.9
    c-2.7,11.8-4.3,23.8-6.3,35.9c-4.5-1.2-8.8-2.2-13-3.4c-17.4-5.1-28.5-3-38.7,11.9c-6.6,9.7-10.3,20.6-11.4,32.3
    c-1.4,14.7,5.3,23.1,19.8,25.8c7.8,1.4,15.7,2,24,3c-2.8,10.8-5.7,21-8.1,31.3c-5,21.4-8.3,43-2.7,64.8
    c2.9,11.4,7.4,22.1,16.7,29.7c14,11.5,29.9,12.5,46.2,6.8c16.8-5.9,30.3-16.3,41.9-29.5c8-9.1,15.1-19,23.6-29.8
    c4.3,12.7,8.2,24.1,12.1,35.6c0.3,0.8,0.7,1.6,1,2.3c8.2,20.7,20.8,38.5,39.7,51.2c9.5,6.4,19.9,10.6,31.3,12.3
    c19.1,2.7,33.2-4.8,41.4-22.2c6.1-13,9.3-26.8,11.7-40.9c1.1-6.4,1.4-13,2.1-19.8c9.7,9.9,18.4,20.2,28.7,28.9
    c18.1,15.2,37.7,28,61,33.4c18.6,4.3,35.4,1.3,49.1-12.6c12.8-13,18.2-29.1,20.2-46.7c3.1-27.5-3.2-52.9-15.8-76.9
    C448.1,197.2,445.2,188,442.6,178.6z M258.9,269.9c-1.2,13.7-7.9,22.4-21.9,24.4c-20.6,2.9-36.3-6-47.6-23
    c-3.8-5.7-4.3-12.7-1.1-19.2c3-6.2,8.3-9.7,15.2-10.6c11.1-1.5,21.7,0.7,31.8,5.5c7.5,3.6,14.9,7.3,22.2,11.2
    C260.9,261.3,259.5,263.9,258.9,269.9z M293.4,210.8c-14.8,1.3-25.5-8.3-24.8-22.4c0.1-2.2,0.7-4.3,1.3-6.5
    c3.2-10.9,12.8-17.2,23.7-16.2c10.7,1,18.5,8.2,20.2,18.7C315.8,197.9,305.9,209.7,293.4,210.8z" fill="white" opacity="0.15"/>
</svg> 